<svg width="42" height="42" xmlns="http://www.w3.org/2000/svg" xmlns:xlink="http://www.w3.org/1999/xlink" xml:space="preserve" overflow="hidden"><defs><clipPath id="clip0"><rect x="0" y="0" width="42" height="42"/></clipPath></defs><g clip-path="url(#clip0)"><path d="M23.247 18.5514 23.2764 18.5514 23.2764 18.5052ZM23.247 18.5514 23.2764 18.5514 23.2764 18.5052ZM23.247 18.5514 23.2764 18.5514 23.2764 18.5052ZM23.247 18.5514 23.2764 18.5514 23.2764 18.5052ZM23.247 18.5514 23.2764 18.5514 23.2764 18.5052ZM23.247 18.5514 23.2764 18.5514 23.2764 18.5052ZM23.247 18.5514 23.2764 18.5514 23.2764 18.5052ZM23.247 18.5514 23.2764 18.5514 23.2764 18.5052ZM23.247 18.5514 23.2764 18.5514 23.2764 18.5052ZM23.247 18.5514 23.2764 18.5514 23.2764 18.5052ZM23.247 18.5514 23.2764 18.5514 23.2764 18.5052ZM23.247 18.5514 23.2764 18.5514 23.2764 18.5052ZM23.247 18.5514 23.2764 18.5514 23.2764 18.5052ZM23.247 18.5514 23.2764 18.5514 23.2764 18.5052ZM23.247 18.5514 23.2764 18.5514 23.2764 18.5052ZM23.247 18.5514 23.2764 18.5514 23.2764 18.5052ZM21.336 1.5834C10.7424 1.5834 2.1546 10.1712 2.1546 20.7648 2.1546 31.3584 10.7424 39.9462 21.336 39.9462 31.9296 39.9462 40.5174 31.3584 40.5174 20.7648 40.5058 10.176 31.9248 1.59497 21.336 1.5834ZM16.5396 29.4C16.5373 29.577 16.3932 29.7192 16.2162 29.7192L12.5202 29.7192C12.3439 29.7192 12.201 29.5763 12.201 29.4L12.201 16.9806C12.1987 16.8043 12.3397 16.6595 12.516 16.6572 12.5174 16.6572 12.5188 16.6572 12.5202 16.6572L16.2162 16.6572C16.3948 16.6572 16.5396 16.802 16.5396 16.9806ZM14.238 14.9982C12.9553 14.9982 11.9154 13.9583 11.9154 12.6756 11.9154 11.3929 12.9553 10.353 14.238 10.353 15.5207 10.353 16.5606 11.3929 16.5606 12.6756 16.5629 13.956 15.5268 14.9959 14.2464 14.9982 14.2436 14.9982 14.2408 14.9982 14.238 14.9982ZM32.1804 29.4C32.1781 29.577 32.034 29.7192 31.857 29.7192L28.161 29.7192C27.9847 29.7192 27.8418 29.5763 27.8418 29.4L27.8418 22.7262C27.8418 20.9706 27.216 19.7862 25.6452 19.7862 24.6423 19.7918 23.7511 20.4274 23.4192 21.3738 23.3085 21.7152 23.2601 22.0737 23.2764 22.4322L23.2764 29.4C23.2764 29.5786 23.1316 29.7234 22.953 29.7234L19.257 29.7234C19.0807 29.7234 18.9378 29.5805 18.9378 29.4042 18.9378 29.4028 18.9378 29.4014 18.9378 29.4 18.9378 27.6276 18.984 19.0218 18.9378 16.9974 18.9355 16.8211 19.0765 16.6763 19.2528 16.674 19.2542 16.674 19.2556 16.674 19.257 16.674L22.9446 16.674C23.1209 16.6717 23.2657 16.8127 23.268 16.9889 23.268 16.9918 23.268 16.9946 23.268 16.9974L23.268 18.522C24.0688 17.132 25.5754 16.3018 27.1782 16.3674 30.03 16.3674 32.172 18.2322 32.172 22.2474ZM23.2764 18.564 23.2764 18.5178 23.247 18.564ZM23.247 18.564 23.2764 18.564 23.2764 18.5178ZM23.247 18.564 23.2764 18.564 23.2764 18.5178ZM23.247 18.564 23.2764 18.564 23.2764 18.5178ZM23.247 18.564 23.2764 18.564 23.2764 18.5178ZM23.247 18.564 23.2764 18.564 23.2764 18.5178ZM23.247 18.564 23.2764 18.564 23.2764 18.5178ZM23.247 18.564 23.2764 18.564 23.2764 18.5178ZM23.247 18.564 23.2764 18.564 23.2764 18.5178ZM23.247 18.564 23.2764 18.564 23.2764 18.5178ZM23.247 18.564 23.2764 18.564 23.2764 18.5178ZM23.247 18.564 23.2764 18.564 23.2764 18.5178ZM23.247 18.564 23.2764 18.564 23.2764 18.5178ZM23.247 18.564 23.2764 18.564 23.2764 18.5178ZM23.247 18.564 23.2764 18.564 23.2764 18.5178Z"/></g></svg>